# xmcd
#
# Track frame offsets: 
#        150
#        1651
#        25432
#        42867
#        65044
#        84019
#        102982
#        123518
#        138101
#        157419
#        177915
#        192111
#        212520
#        234592
#
# Disc length: 3514 seconds
#
# Revision: 0
# Processed by: cddbd v1.5.2PL0 Copyright (c) Steve Scherf et al.
# Submitted via: ExactAudioCopy v0.99pb3
#
DISCID=b40db80e
DTITLE=Various Artist - Technique Recordings Session Mix by Simon Bassline Sm
DTITLE=ith
DYEAR=2006
DGENRE=Drum and Bass
TTITLE0=Drumsound and Bassline Smith - Intro
TTITLE1=Drumsound and Bassline Smith - Newsflash
TTITLE2=Drumsound and Bassline Smith - Tinman
TTITLE3=Drumsound and Bassline Smith - Palomino
TTITLE4=Drumsound and Bassline Smith - Breakdown ( Twisted Indiviual RMX
TTITLE4=)
TTITLE5=Drumsound and Bassline Smith - Ghost
TTITLE6=Skyver and d jon - All that stands
TTITLE7=Drumsound and Bassline Smith - Get Trough ( Distorted Minds RMX 
TTITLE7=)
TTITLE8=Drumsound and Bassline Smith - King Of Kings
TTITLE9=Drumsound and Bassline Smith - Junglist
TTITLE10=Drumsound and Bassline Smith - Booty Call
TTITLE11=Phetsta - Mako
TTITLE12=Drumsound and Bassline Smith - Underworld
TTITLE13=State of Minds - Dread Rock
EXTD=
EXTT0=
EXTT1=
EXTT2=
EXTT3=
EXTT4=
EXTT5=
EXTT6=
EXTT7=
EXTT8=
EXTT9=
EXTT10=
EXTT11=
EXTT12=
EXTT13=
PLAYORDER=
